<svg width="49" height="15" viewBox="0 0 49 15" fill="none" xmlns="http://www.w3.org/2000/svg">
<path fill-rule="evenodd" clip-rule="evenodd" d="M18.5733 0C16.6146 0 15.0267 1.50116 15.0267 3.35294V11.6471H17.2667V3.26471C17.2667 2.53374 17.8935 1.94118 18.6667 1.94118C19.5192 1.94118 19.9231 2.21098 20.2533 3.70588L22.3067 11.6471H24.4533L22.3067 3.35294C21.7467 1.23529 20.7188 0 18.76 0H18.5733Z" fill="white"/>
<path fill-rule="evenodd" clip-rule="evenodd" d="M6.34667 0C8.30544 0 9.35577 1.25651 9.98667 3.35294H7.80769C7.40385 2.14734 7.02652 1.94118 6.25333 1.94118C5.48014 1.94118 4.94667 2.55882 4.66667 3.70588L2.14667 14.6471H0L2.61333 3.35294C3.17333 1.23529 4.20123 0 6.16 0H6.34667Z" fill="white"/>
<path fill-rule="evenodd" clip-rule="evenodd" d="M26.04 15C27.9988 15 29.5867 13.4988 29.5867 11.6471V0.529415H27.3467V11.7353C27.3467 12.4663 26.7199 13.0588 25.9467 13.0588C25.1735 13.0588 24.7333 12.8824 24.36 11.2941L22.3067 3.35294L20.2533 3.70588L22.3067 11.6471C22.8667 13.7647 23.8946 15 25.8533 15H26.04Z" fill="white"/>
<path fill-rule="evenodd" clip-rule="evenodd" d="M13.72 15C15.6788 15 17.2667 13.4988 17.2667 11.6471V3.26471L15.0267 3.35294L15.0267 11.7353C15.0267 12.4663 14.3999 13.0588 13.6267 13.0588C12.8535 13.0588 12.4133 12.8824 12.04 11.2941L9.98667 3.35294H7.80769L9.98667 11.6471C10.5467 13.7647 11.5746 15 13.5333 15H13.72Z" fill="white"/>
<path d="M31.8267 14.6471C31.8267 13.581 32.0488 12.5254 32.4803 11.5406C32.9118 10.5557 33.5443 9.66081 34.3416 8.90702C35.139 8.15322 36.0856 7.55528 37.1274 7.14733C38.1691 6.73938 39.2857 6.52941 40.4133 6.52941C41.5409 6.52941 42.6575 6.73938 43.6993 7.14733C44.7411 7.55528 45.6877 8.15322 46.485 8.90702C47.2824 9.66081 47.9149 10.5557 48.3464 11.5406C48.7779 12.5254 49 13.581 49 14.6471H46.6816C46.6816 13.8689 46.5195 13.0983 46.2045 12.3793C45.8894 11.6604 45.4277 11.0071 44.8457 10.4568C44.2636 9.90656 43.5726 9.47006 42.8121 9.17226C42.0516 8.87446 41.2365 8.72118 40.4133 8.72118C39.5902 8.72118 38.7751 8.87446 38.0146 9.17226C37.2541 9.47006 36.5631 9.90656 35.981 10.4568C35.3989 11.0071 34.9372 11.6604 34.6222 12.3793C34.3072 13.0983 34.1451 13.8689 34.1451 14.6471H31.8267Z" fill="white"/>
<path d="M49 0.529413C49 2.68235 48.0953 4.7471 46.485 6.26945C44.8747 7.79181 42.6907 8.64706 40.4133 8.64706C38.136 8.64706 35.952 7.79181 34.3416 6.26946C32.7313 4.7471 31.8267 2.68235 31.8267 0.529415L34.1451 0.529415C34.1451 2.10106 34.8055 3.60833 35.981 4.71965C37.1565 5.83096 38.7509 6.45529 40.4133 6.45529C42.0758 6.45529 43.6701 5.83096 44.8457 4.71964C46.0212 3.60833 46.6816 2.10105 46.6816 0.529413H49Z" fill="white"/>
</svg>
